<svg viewBox="0 0 1000 500" xmlns="http://www.w3.org/2000/svg">
  <!-- Background -->
  <rect width="1000" height="500" fill="#f8fafc"/>
  
  <!-- Title -->
  <text x="500" y="30" text-anchor="middle" font-family="Arial, sans-serif" font-size="24" font-weight="bold" fill="#1e293b">Open Science Policies Worldwide</text>
  
  <!-- Legend -->
  <g transform="translate(50, 450)">
    <rect x="0" y="0" width="20" height="15" fill="#059669"/>
    <text x="25" y="12" font-family="Arial, sans-serif" font-size="12" fill="#374151">Comprehensive Policy</text>
    
    <rect x="150" y="0" width="20" height="15" fill="#2563eb"/>
    <text x="175" y="12" font-family="Arial, sans-serif" font-size="12" fill="#374151">Action Plan/Strategy</text>
    
    <rect x="300" y="0" width="20" height="15" fill="#d97706"/>
    <text x="325" y="12" font-family="Arial, sans-serif" font-size="12" fill="#374151">Open Access Policy</text>
    
    <rect x="450" y="0" width="20" height="15" fill="#dc2626"/>
    <text x="475" y="12" font-family="Arial, sans-serif" font-size="12" fill="#374151">In Development</text>
    
    <rect x="580" y="0" width="20" height="15" fill="#7c3aed"/>
    <text x="605" y="12" font-family="Arial, sans-serif" font-size="12" fill="#374151">Post-2021 UNESCO</text>
    
    <rect x="730" y="0" width="20" height="15" fill="#d1d5db"/>
    <text x="755" y="12" font-family="Arial, sans-serif" font-size="12" fill="#374151">No Known Policy</text>
  </g>
  
  <!-- World Map Simplified -->
  
  <!-- North America -->
  <!-- USA -->
  <path d="M120 160 L200 150 L280 180 L260 240 L180 250 L120 220 Z" fill="#d97706" stroke="#fff" stroke-width="1"/>
  <text x="200" y="205" text-anchor="middle" font-family="Arial, sans-serif" font-size="10" fill="#fff" font-weight="bold">USA</text>
  
  <!-- Canada -->
  <path d="M120 140 L200 130 L280 160 L200 150 L120 160 Z" fill="#2563eb" stroke="#fff" stroke-width="1"/>
  <text x="200" y="150" text-anchor="middle" font-family="Arial, sans-serif" font-size="10" fill="#fff" font-weight="bold">CAN</text>
  
  <!-- Mexico -->
  <path d="M180 250 L280 240 L290 280 L220 290 Z" fill="#d97706" stroke="#fff" stroke-width="1"/>
  <text x="240" y="270" text-anchor="middle" font-family="Arial, sans-serif" font-size="9" fill="#fff" font-weight="bold">MEX</text>
  
  <!-- South America -->
  <!-- Colombia -->
  <path d="M220 320 L260 310 L280 350 L250 360 L220 340 Z" fill="#059669" stroke="#fff" stroke-width="1"/>
  <text x="250" y="340" text-anchor="middle" font-family="Arial, sans-serif" font-size="9" fill="#fff" font-weight="bold">COL</text>
  
  <!-- Venezuela -->
  <path d="M250 310 L290 300 L310 340 L280 350 L250 330 Z" fill="#dc2626" stroke="#fff" stroke-width="1"/>
  <text x="280" y="325" text-anchor="middle" font-family="Arial, sans-serif" font-size="9" fill="#fff" font-weight="bold">VEN</text>
  
  <!-- Argentina -->
  <path d="M280 380 L320 370 L340 420 L310 430 L280 410 Z" fill="#d97706" stroke="#fff" stroke-width="1"/>
  <text x="310" y="405" text-anchor="middle" font-family="Arial, sans-serif" font-size="9" fill="#fff" font-weight="bold">ARG</text>
  
  <!-- Chile -->
  <path d="M270 370 L290 360 L300 420 L280 430 Z" fill="#d97706" stroke="#fff" stroke-width="1"/>
  <text x="285" y="395" text-anchor="middle" font-family="Arial, sans-serif" font-size="8" fill="#fff" font-weight="bold">CHL</text>
  
  <!-- Europe -->
  <!-- Finland -->
  <path d="M520 110 L560 100 L580 130 L550 140 Z" fill="#059669" stroke="#fff" stroke-width="1"/>
  <text x="550" y="125" text-anchor="middle" font-family="Arial, sans-serif" font-size="8" fill="#fff" font-weight="bold">FIN</text>
  
  <!-- France -->
  <path d="M480 180 L520 170 L540 200 L510 210 Z" fill="#2563eb" stroke="#fff" stroke-width="1"/>
  <text x="510" y="195" text-anchor="middle" font-family="Arial, sans-serif" font-size="9" fill="#fff" font-weight="bold">FRA</text>
  
  <!-- Germany -->
  <path d="M520 160 L560 150 L580 180 L550 190 Z" fill="#d97706" stroke="#fff" stroke-width="1"/>
  <text x="550" y="175" text-anchor="middle" font-family="Arial, sans-serif" font-size="9" fill="#fff" font-weight="bold">DEU</text>
  
  <!-- Spain -->
  <path d="M460 220 L500 210 L520 240 L490 250 Z" fill="#7c3aed" stroke="#fff" stroke-width="1"/>
  <text x="490" y="235" text-anchor="middle" font-family="Arial, sans-serif" font-size="9" fill="#fff" font-weight="bold">ESP</text>
  
  <!-- Italy -->
  <path d="M520 200 L560 190 L580 220 L550 230 Z" fill="#7c3aed" stroke="#fff" stroke-width="1"/>
  <text x="550" y="215" text-anchor="middle" font-family="Arial, sans-serif" font-size="9" fill="#fff" font-weight="bold">ITA</text>
  
  <!-- Austria -->
  <path d="M540 180 L580 170 L600 200 L570 210 Z" fill="#7c3aed" stroke="#fff" stroke-width="1"/>
  <text x="570" y="195" text-anchor="middle" font-family="Arial, sans-serif" font-size="8" fill="#fff" font-weight="bold">AUT</text>
  
  <!-- Netherlands -->
  <path d="M500 150 L540 140 L560 170 L530 180 Z" fill="#2563eb" stroke="#fff" stroke-width="1"/>
  <text x="530" y="165" text-anchor="middle" font-family="Arial, sans-serif" font-size="8" fill="#fff" font-weight="bold">NLD</text>
  
  <!-- Poland -->
  <path d="M560 140 L600 130 L620 160 L590 170 Z" fill="#d97706" stroke="#fff" stroke-width="1"/>
  <text x="590" y="155" text-anchor="middle" font-family="Arial, sans-serif" font-size="9" fill="#fff" font-weight="bold">POL</text>
  
  <!-- Ireland -->
  <path d="M440 160 L470 150 L480 180 L450 190 Z" fill="#7c3aed" stroke="#fff" stroke-width="1"/>
  <text x="460" y="175" text-anchor="middle" font-family="Arial, sans-serif" font-size="8" fill="#fff" font-weight="bold">IRL</text>
  
  <!-- Serbia -->
  <path d="M580 200 L620 190 L640 220 L610 230 Z" fill="#059669" stroke="#fff" stroke-width="1"/>
  <text x="610" y="215" text-anchor="middle" font-family="Arial, sans-serif" font-size="8" fill="#fff" font-weight="bold">SRB</text>
  
  <!-- Africa -->
  <!-- South Africa -->
  <path d="M540 380 L580 370 L600 400 L570 410 Z" fill="#059669" stroke="#fff" stroke-width="1"/>
  <text x="570" y="395" text-anchor="middle" font-family="Arial, sans-serif" font-size="9" fill="#fff" font-weight="bold">ZAF</text>
  
  <!-- Kenya -->
  <path d="M580 300 L620 290 L640 320 L610 330 Z" fill="#dc2626" stroke="#fff" stroke-width="1"/>
  <text x="610" y="315" text-anchor="middle" font-family="Arial, sans-serif" font-size="9" fill="#fff" font-weight="bold">KEN</text>
  
  <!-- Nigeria -->
  <path d="M500 280 L540 270 L560 300 L530 310 Z" fill="#dc2626" stroke="#fff" stroke-width="1"/>
  <text x="530" y="295" text-anchor="middle" font-family="Arial, sans-serif" font-size="9" fill="#fff" font-weight="bold">NGA</text>
  
  <!-- Ghana -->
  <path d="M480 290 L520 280 L540 310 L510 320 Z" fill="#7c3aed" stroke="#fff" stroke-width="1"/>
  <text x="510" y="305" text-anchor="middle" font-family="Arial, sans-serif" font-size="8" fill="#fff" font-weight="bold">GHA</text>
  
  <!-- Ethiopia -->
  <path d="M600 270 L640 260 L660 290 L630 300 Z" fill="#d97706" stroke="#fff" stroke-width="1"/>
  <text x="630" y="285" text-anchor="middle" font-family="Arial, sans-serif" font-size="8" fill="#fff" font-weight="bold">ETH</text>
  
  <!-- Botswana -->
  <path d="M560 360 L600 350 L620 380 L590 390 Z" fill="#dc2626" stroke="#fff" stroke-width="1"/>
  <text x="590" y="375" text-anchor="middle" font-family="Arial, sans-serif" font-size="8" fill="#fff" font-weight="bold">BWA</text>
  
  <!-- Asia -->
  <!-- China -->
  <path d="M700 180 L780 170 L800 220 L760 230 Z" fill="#2563eb" stroke="#fff" stroke-width="1"/>
  <text x="760" y="205" text-anchor="middle" font-family="Arial, sans-serif" font-size="12" fill="#fff" font-weight="bold">CHINA</text>
  
  <!-- Japan -->
  <path d="M820 160 L860 150 L880 180 L850 190 Z" fill="#2563eb" stroke="#fff" stroke-width="1"/>
  <text x="850" y="175" text-anchor="middle" font-family="Arial, sans-serif" font-size="9" fill="#fff" font-weight="bold">JPN</text>
  
  <!-- India -->
  <path d="M680 240 L740 230 L760 280 L720 290 Z" fill="#d97706" stroke="#fff" stroke-width="1"/>
  <text x="720" y="265" text-anchor="middle" font-family="Arial, sans-serif" font-size="11" fill="#fff" font-weight="bold">INDIA</text>
  
  <!-- Oceania -->
  <!-- Australia (no known comprehensive policy) -->
  <path d="M780 350 L850 340 L870 380 L820 390 Z" fill="#d1d5db" stroke="#fff" stroke-width="1"/>
  <text x="825" y="370" text-anchor="middle" font-family="Arial, sans-serif" font-size="10" fill="#374151" font-weight="bold">AUS</text>
  
  <!-- New Zealand -->
  <path d="M870 380 L900 370 L920 400 L890 410 Z" fill="#d97706" stroke="#fff" stroke-width="1"/>
  <text x="895" y="395" text-anchor="middle" font-family="Arial, sans-serif" font-size="8" fill="#fff" font-weight="bold">NZL</text>
  
  <!-- Statistics Box -->
  <g transform="translate(50, 60)">
    <rect x="0" y="0" width="300" height="100" fill="#f1f5f9" stroke="#cbd5e1" stroke-width="1" rx="5"/>
    <text x="150" y="20" text-anchor="middle" font-family="Arial, sans-serif" font-size="14" font-weight="bold" fill="#1e293b">Global Statistics</text>
    <text x="10" y="40" font-family="Arial, sans-serif" font-size="12" fill="#374151">• ~70 countries with some policy</text>
    <text x="10" y="55" font-family="Arial, sans-serif" font-size="12" fill="#374151">• 6-8 comprehensive policies</text>
    <text x="10" y="70" font-family="Arial, sans-serif" font-size="12" fill="#374151">• 11 new policies post-UNESCO 2021</text>
    <text x="10" y="85" font-family="Arial, sans-serif" font-size="12" fill="#374151">• 15+ countries developing policies</text>
  </g>
</svg>